<svg viewBox="0 0 458 352" xmlns="http://www.w3.org/2000/svg">
  <path d="M152.31 56.094l-2.845 4.875h-2.73l-.87 1.435h2.757l-6.068 10.383c-1.278 2.209-.377 4.247 2.061 4.247 1.754 0 3.691-1.304 5.557-3.073-.006 3.802 5.341 4.545 8.61.461h.666c1.8 0 4.644-1.09 6.184-2.896-.2-.404-.722-.861-1.128-1.033l-.205.228c-1.364 1.463-3.047 2.178-4.558 2.207l2.845-4.846c1.828-3.127.145-6.08-2.701-6.08-2.322 0-4.12.916-5.862 3.9l-1.48 2.553-1.237 2.09-.156.176c-2.176 2.496-4.298 4.475-5.633 4.475-.667 0-1.045-.46-.348-1.635l6.476-11.158h2.465l.872-1.436h-2.499l2.846-4.873zm7.531 7.836c.984.09 1.45 1.295.422 3.037l-2.204 3.727h-.145c-.987 0-1.77.804-1.77 1.779 0 .371.116.716.291 1.004l-.03.056c-1.422 2.41-4.879 1.951-3.079-1.146l2.294-3.928 1.451-2.437c.927-1.556 2.005-2.162 2.77-2.092zm21.933-7.84l-2.845 4.877H176.2l-.87 1.434h2.757l-6.069 10.383c-1.277 2.208-.376 4.246 2.062 4.246 1.223 0 2.538-.637 3.853-1.621l-.778 1.334h3.046l4.588-7.887c4.644-5.767 6.706-5.02 5.399-2.81l-3.92 6.74c-1.278 2.21-.377 4.248 2.061 4.248 1.796 0 3.788-1.37 5.693-3.205.146 1.857 1.667 3.205 4.09 3.205 3.423 0 6.82-2.64 9.316-5.508-.197-.403-.719-.861-1.126-1.033l-.203.226c-2.178 2.497-4.964 4.475-7.082 4.475-1.86 0-2.964-1.146-1.57-3.555l.29-.52c1.946.805 5.604.431 7.868-3.44l.437-.747c1.625-2.753.058-4.818-2.41-4.818-2.439 0-4.383 1.263-5.66 3.441l-2.93 4.965-.176.2c-2.177 2.494-4.295 4.472-5.631 4.472-.666 0-1.046-.46-.35-1.635l4.355-7.543c1.306-2.265.06-3.9-1.624-3.9-1.307 0-2.702.717-4.21 2.265l4.818-8.289h-3.019l-8.423 14.438-.17.19c-2.176 2.496-4.297 4.474-5.633 4.474-.667 0-1.044-.46-.346-1.635l6.472-11.158h2.467l.872-1.433h-2.496l2.845-4.875zm21.312 8.242c.969-.057 1.501.86.489 2.604l-.437.746c-1.45 2.438-3.397 2.38-4.53 1.978l1.946-3.357c.763-1.292 1.78-1.926 2.532-1.97zm44.318-5.463c-1.714 1.52-1.858 3.214-.783 4.59l.262.344c-1.335 1.865-3.135 4.387-5.11 6.684l.002.003-.203.229c-1.365 1.461-3.046 2.18-4.558 2.209l2.843-4.848c1.83-3.126.147-6.08-2.7-6.08-2.32 0-4.12.918-5.86 3.9l-1.484 2.553-1.238 2.092-.154.176c-2.497 2.84-4.643 4.671-7.025 5.676l6.763-11.414h-1.77c0-1.234-1.276-2.87-3.164-2.87-1.624 0-3.89 1.265-5.168 3.444l-4.238 7.227c-1.278 2.208-.378 4.246 2.06 4.246.843 0 1.86-.374 2.877-1.004l-.843 1.404c-4.064 1.233-6.62 2.868-6.62 5.106 0 2.869 4.442 3.471 6.62-.2l2.292-3.93c2.416-.743 4.783-2.147 7.24-4.464-.021 3.817 5.337 4.567 8.61.476h.668c1.8 0 4.645-1.089 6.184-2.896 1.449-1.664 2.58-3.155 4.99-6.395l.405.489c.377.487.525 1.09.175 1.691l-3.193 5.479c-1.28 2.21-.379 4.246 2.061 4.246 1.53 0 3.204-.995 4.842-2.422-.05 1.386.887 2.422 2.619 2.422.84 0 1.857-.373 2.874-1.004l-.842 1.402c-4.065 1.233-6.616 2.868-6.616 5.106 0 2.869 4.44 3.47 6.616-.2l2.292-3.93c2.46-.758 4.87-2.206 7.377-4.599.136 1.868 1.658 3.225 4.09 3.225 2.458 0 4.899-1.363 7.004-3.19-.117 3.905 5.31 4.703 8.612.578h.668c.945 0 2.175-.308 3.357-.853-.813 2.073-.066 3.465 1.661 3.465 1.656 0 3.513-1.492 4.964-2.868-.29 1.605.667 2.868 2.584 2.868 2.496 0 5.37-2.637 7.868-5.506l-.002-.002c1.712-1.952 3.223-4.043 4.298-5.448-1.19 3.096-.555 8.66-3.426 8.66-1.016 0-1.42-1.09-1.42-1.09l-1.89.975s.551 2.412 3.31 2.412c.29 0 .552-.03.84-.06.03 0 .061-.027.091-.027 3.076-.4 6.124-2.81 8.388-5.42-.173-.459-.696-.918-1.13-1.034l-.203.229a18.852 18.852 0 0 1-3.63 3.24c.957-2.84.755-7.2 2.614-11.014l-2.264-1.205c-1.25 1.693-3.977 5.593-6.706 8.748v.002l-.203.229c-2.176 2.496-4.295 4.472-5.631 4.472-.667 0-1.045-.459-.347-1.634l6.444-11.158h-3.02l-5.37 9.265c-2.293 2.064-4.062 3.212-4.644 2.953-.754-.314 0-1.433.378-2.064l5.893-10.152h-3.02l-4.734 8.092-.199.226c-1.364 1.463-3.047 2.18-4.558 2.21l2.845-4.849c1.828-3.127.15-6.08-2.699-6.08-2.323 0-4.123.918-5.864 3.903l-1.482 2.55-1.237 2.09-.155.178c-2.176 2.496-4.964 4.473-7.083 4.473-1.858 0-2.96-1.146-1.567-3.555l.29-.518c1.944.804 5.604.43 7.867-3.443l.438-.746c1.623-2.754.058-4.819-2.41-4.819-2.44 0-4.387 1.265-5.663 3.444l-2.926 4.965-.175.197c-2.499 2.84-4.645 4.673-7.028 5.678l6.764-11.416h-1.772c0-1.234-1.277-2.868-3.164-2.868-1.625 0-3.889 1.263-5.167 3.442l-2.896 4.937-.008-.004-.203.23c-2.176 2.495-4.298 4.474-5.634 4.474-.667 0-1.042-.46-.346-1.635l3.018-5.22c1.045-1.807.551-2.87-.437-4.046l-1.683-2.01c-.435-.545-.435-1.146.175-1.72zm-10.294 5.06c.984.09 1.451 1.296.424 3.038l-2.204 3.727h-.147c-.986 0-1.77.804-1.77 1.779 0 .371.116.716.29 1.004l-.028.056c-1.422 2.41-4.878 1.951-3.078-1.146l2.292-3.928 1.453-2.437c.928-1.556 2.004-2.162 2.768-2.092zm50.158 0c.984.09 1.453 1.296.426 3.038l-2.206 3.727h-.147c-.986 0-1.768.804-1.768 1.779 0 .371.116.716.289 1.004l-.03.056c-1.421 2.41-4.875 1.951-3.075-1.146l2.292-3.928 1.451-2.437c.927-1.556 2.003-2.162 2.768-2.092zm-11.7.405c.968-.057 1.497.859.485 2.602l-.435.746c-1.451 2.438-3.397 2.38-4.53 1.978l1.948-3.355c.762-1.292 1.78-1.926 2.532-1.97zm-52.403.201c1.023-.006 1.678.884.845 2.4l-2.292 3.96c-1.83 2.897-3.66 4.3-4.938 4.3-.667 0-1.045-.459-.349-1.634l4.212-7.256c.71-1.217 1.727-1.765 2.522-1.77zm38.923 0c1.023-.006 1.678.884.845 2.4l-2.292 3.96c-1.828 2.897-3.66 4.3-4.936 4.3-.667 0-1.043-.459-.349-1.634l4.21-7.256c.71-1.217 1.727-1.765 2.522-1.77zM216.75 79.443l-1.364 2.407c-.638 1.118-1.654.947-1.654.144 0-.774.727-1.662 3.018-2.55zm38.925 0l-1.362 2.407c-.64 1.118-1.656.947-1.656.144 0-.774.726-1.662 3.018-2.55zm-154.65-11.612h28.922v1.95h-28.922zm227.03 0h28.922v1.95h-28.922z" fill="#766458"/>
  <path d="M322.7 37.364V45.1h-20.816V.353H322.7v7.671h-13.201v10.803h10.535v7.67h-10.535v10.867zM289.908.354h7.551v44.747h-7.616v-21.99l-3.047 11.378h-7.425l-2.982-11.378v21.99h-7.617V.354h7.552l6.791 21.605zm-31.909 7.67h-5.523v29.34H258zm2.982-7.67c2.54 0 4.698 2.109 4.698 4.731V40.37c0 2.557-2.158 4.73-4.698 4.73h-11.424c-2.6 0-4.696-2.173-4.696-4.73V5.085c0-2.621 2.096-4.73 4.696-4.73zm-28.01 28.252l7.678-1.79v13.552c0 2.557-2.157 4.73-4.696 4.73h-11.425c-2.6 0-4.695-2.173-4.695-4.73V5.084c0-2.622 2.095-4.73 4.695-4.73h11.423c2.54 0 4.697 2.108 4.697 4.73v9.077l-7.678 1.79V8.023h-5.522v29.34h5.522zm-16.801 8.758V45.1h-18.213V.353h7.616v37.01zm-21.346 0V45.1h-20.816V.353h20.816v7.67h-13.2v10.804h10.535v7.67h-10.535v10.866zM162.564.354h7.677L169.037 45.1h-14.47l-1.968-18.474-1.967 18.474h-14.533L134.957.354h7.616l.635 37.01h.824l4.76-37.01h7.552l4.888 37.01h.762z" fill="#81b3d3"/>
  <path d="M380.74 213.95l25.432-73.974h25.2l25.664 73.974H436.83l-3.716-13.355h-28.568l-3.832 13.355zm35.652-52.142l-7.548 24.503h20.09l-7.549-24.503a200.681 200.681 0 0 1-1.161-3.6 85.695 85.695 0 0 1-.813-3.832c-.155-.465-.271-.89-.348-1.278-.078-.464-.155-.89-.233-1.277-.077.387-.193.813-.348 1.277-.077.387-.155.813-.232 1.278-.078.155-.116.31-.116.464 0 .078-.04.194-.117.349a42.821 42.821 0 0 1-.812 3.367 49.862 49.862 0 0 1-.813 3.252zm-117.68 52.142v-73.974h19.51l27.871 37.974a37.228 37.228 0 0 1 1.974 3.484 53.506 53.506 0 0 1 1.974 3.6l1.394 3.02c.464 1.006.929 1.973 1.393 2.902a23.097 23.097 0 0 0-.348-2.438c-.077-.774-.155-1.587-.232-2.439a91.7 91.7 0 0 1-.349-4.761 99.816 99.816 0 0 1-.116-4.994v-36.348h19.393v73.974h-19.393l-28.103-38.206c-.774-.929-1.51-2.013-2.206-3.251a65.83 65.83 0 0 1-1.974-4.065 103.301 103.301 0 0 0-1.394-2.903 50.987 50.987 0 0 0-1.161-2.787c.387 2.4.697 4.839.929 7.316s.342 4.955.348 7.432v36.464zm-88.009-54.984c3.561-6.58 8.516-11.613 14.864-15.097s12.968-5.226 19.858-5.226c.929 0 1.858.039 2.787.116 1.007.078 1.974.155 2.903.233a41.113 41.113 0 0 1 8.478 2.09 39.444 39.444 0 0 1 8.129 3.948c5.497 3.562 9.755 8.323 12.774 14.284 3.019 5.884 4.529 12.04 4.529 18.464 0 .774-.039 1.587-.116 2.439 0 .774-.078 1.548-.233 2.323a27.068 27.068 0 0 1-.929 4.877 36.028 36.028 0 0 1-1.51 4.645c-3.251 7.51-8.322 13.355-15.212 17.535-6.89 4.103-14.13 6.155-21.716 6.155a11.48 11.48 0 0 1-1.626-.116h-1.51a46.946 46.946 0 0 1-7.897-1.394 37.927 37.927 0 0 1-7.432-2.903c-6.503-3.406-11.613-8.245-15.329-14.516-3.716-6.348-5.574-12.929-5.574-19.742 0-1.006.039-2.013.116-3.02.077-1.006.232-2.05.465-3.135a43.647 43.647 0 0 1 1.625-6.039 36.922 36.922 0 0 1 2.555-5.922zm52.839 26.593c.232-.774.426-1.587.58-2.439.233-.851.388-1.703.465-2.555.078-.541.116-1.083.116-1.625.078-.542.116-1.046.116-1.51a8.46 8.46 0 0 0-.116-1.394v-1.393c-.387-3.33-1.393-6.542-3.02-9.639-1.625-3.097-3.87-5.497-6.735-7.2-.774-.387-1.548-.735-2.322-1.045s-1.549-.58-2.323-.813a24.028 24.028 0 0 0-2.322-.348 11.816 11.816 0 0 0-2.323-.233c-3.948 0-7.587 1.24-10.916 3.717-3.329 2.477-5.652 5.767-6.968 9.87l-.232.465v.464a18.358 18.358 0 0 0-.58 2.207c-.155.697-.31 1.432-.465 2.206l-.232 1.626v2.439c0 .232.038.503.116.813.232 4.103 1.47 8.013 3.716 11.729 2.322 3.638 5.497 6.038 9.522 7.2l1.394.464c.464.078.968.155 1.51.232l1.393.233h1.394c4.103 0 7.78-1.2 11.032-3.6 3.329-2.478 5.729-5.768 7.2-9.871zm-82.156 21.423c-3.639 2.477-7.587 4.18-11.845 5.11s-8.555 1.51-12.89 1.742a59.574 59.574 0 0 1-3.716.116h-23.806v-73.974h25.084c1.239 0 2.439.038 3.6.116 4.18.232 8.284.813 12.31 1.742a30.348 30.348 0 0 1 11.264 5.11c4.335 3.019 7.703 7.006 10.103 11.96 2.4 4.955 3.755 10.064 4.064 15.33.078.464.117.928.117 1.393v2.903c-.233 5.497-1.549 10.8-3.949 15.91s-5.845 9.29-10.335 12.542zm-32.4-9.639c.232 0 .465.039.697.116h.813c.31 0 .58.04.813.117h3.135c.852-.078 1.665-.155 2.439-.233a30.62 30.62 0 0 0 5.922-1.045c1.936-.542 3.678-1.355 5.226-2.439 2.478-1.78 4.297-4.18 5.458-7.2a25.722 25.722 0 0 0 1.858-9.638v-.93c0-.309-.038-.619-.116-.928a23.144 23.144 0 0 0-2.09-8.478c-1.239-2.787-2.942-4.993-5.11-6.62a13.34 13.34 0 0 0-5.458-2.67 30.682 30.682 0 0 0-6.039-.813h-7.548zm-79.91 16.606v-73.974h45.406v16.142H88.934v12.89h24.039v15.794H88.934v12.542h25.548v16.606zM9.673 190.115c.077.078.116.155.116.233.078 0 .155.038.232.116 2.09 2.322 4.452 4.49 7.084 6.503 2.632 1.935 5.652 2.98 9.058 3.135.078 0 .155.04.232.117h.349c.077 0 .155.038.232.116h1.277c.388-.078.736-.155 1.046-.233a9.692 9.692 0 0 0 3.484-1.393c1.16-.697 2.051-1.549 2.67-2.555l.233-.465.232-.464c.155-.542.271-1.045.349-1.51.077-.464.116-.89.116-1.277 0-2.09-.93-3.832-2.787-5.226a19.948 19.948 0 0 0-5.807-3.368 16.805 16.805 0 0 0-2.439-.696 31.442 31.442 0 0 0-2.206-.581h-.232c-.078-.077-.155-.116-.232-.116a37.998 37.998 0 0 1-10.684-4.413c-3.33-2.09-5.613-5.071-6.852-8.942a100.03 100.03 0 0 1-.697-2.439 27.873 27.873 0 0 1-.348-2.67 3.412 3.412 0 0 1-.116-.814v-2.787c.077-.619.193-1.238.348-1.858a25.49 25.49 0 0 1 1.161-4.645c.542-1.548 1.239-2.942 2.09-4.18 2.478-4.104 5.652-7.046 9.523-8.826 3.949-1.781 8.052-2.671 12.31-2.671 1.007 0 2.013.077 3.02.232a46.31 46.31 0 0 1 3.251.348 39.742 39.742 0 0 1 8.245 2.323c2.787 1.084 5.342 2.361 7.665 3.832l-6.387 14.284a44.641 44.641 0 0 0-6.62-4.064c-2.322-1.162-4.838-1.742-7.548-1.742h-.93c-1.78.232-3.444 1.045-4.993 2.438-1.548 1.316-2.322 2.749-2.322 4.297v.697c.077.232.193.464.348.697.155.542.426 1.045.813 1.51.387.464.813.89 1.277 1.277.852.697 2.09 1.355 3.717 1.974 1.625.542 3.329 1.084 5.11 1.626 1.47.387 2.902.774 4.296 1.161 1.394.31 2.555.62 3.484.93 4.335 1.548 7.587 4.141 9.755 7.78 2.167 3.561 3.29 7.355 3.367 11.38v.581c0 .465-.038.93-.116 1.394v1.277c-.464 4.026-1.78 7.858-3.948 11.497-2.09 3.639-4.916 6.426-8.477 8.362a37.058 37.058 0 0 1-4.065 1.625 82.48 82.48 0 0 1-4.18 1.046 26.86 26.86 0 0 1-3.484.464 25.487 25.487 0 0 1-3.368.232h-1.278c-4.645-.154-9.212-1.161-13.703-3.02-4.49-1.935-8.477-4.49-11.96-7.664zm341.58 147.12c0-.294.057-.586.17-.877.112-.293.28-.556.503-.792a2.59 2.59 0 0 1 .827-.572c.325-.146.69-.22 1.095-.22.45 0 .882.084 1.298.252.414.17.77.41 1.061.727.247.292.437.64.572 1.044.136.404.202.83.202 1.281 0 .85-.151 1.639-.455 2.358a5.98 5.98 0 0 1-1.296 1.92 5.745 5.745 0 0 1-.843.691 9.289 9.289 0 0 1-.893.54c-.28.144-.52.264-.726.352a8.345 8.345 0 0 0-.37.17l-1.35-1.99c.25-.09.524-.207.828-.352.303-.146.59-.326.857-.539a2.93 2.93 0 0 0 .676-.76c.18-.292.28-.629.304-1.01-.65 0-1.225-.19-1.72-.574-.493-.38-.74-.931-.74-1.649m7.837 0c0-.293.057-.586.167-.877.113-.293.282-.556.506-.792.227-.235.5-.428.825-.572.327-.145.69-.22 1.096-.22.45 0 .883.084 1.297.252.417.17.77.41 1.061.727.25.292.44.64.574 1.044.134.405.202.831.202 1.281a6 6 0 0 1-.455 2.358 6.013 6.013 0 0 1-1.298 1.92 5.66 5.66 0 0 1-.845.691 8.11 8.11 0 0 1-.893.54c-.28.145-.52.264-.725.352a9.727 9.727 0 0 0-.37.17l-1.348-1.99c.247-.089.52-.207.825-.352.304-.146.59-.326.86-.539.268-.214.494-.467.673-.76.181-.292.282-.628.304-1.01a2.72 2.72 0 0 1-1.719-.574c-.49-.38-.737-.931-.737-1.648M94.53 278.519c0 .291-.057.584-.17.875a2.38 2.38 0 0 1-.503.793 2.642 2.642 0 0 1-1.923.792 3.42 3.42 0 0 1-1.297-.252 2.924 2.924 0 0 1-1.06-.725 3.122 3.122 0 0 1-.573-1.045 4.03 4.03 0 0 1-.202-1.28c0-.852.152-1.64.455-2.36a5.996 5.996 0 0 1 1.297-1.92 5.51 5.51 0 0 1 .844-.69 8.79 8.79 0 0 1 .893-.54c.28-.144.522-.263.725-.352.203-.087.326-.145.37-.167l1.348 1.988a9.538 9.538 0 0 0-.825.352c-.303.146-.59.325-.86.539-.27.213-.493.466-.673.758-.18.292-.28.63-.303 1.013.65 0 1.224.19 1.718.572.492.381.74.93.74 1.649m-7.837 0a2.456 2.456 0 0 1-.673 1.67 2.602 2.602 0 0 1-.826.571c-.326.146-.692.22-1.096.22a3.41 3.41 0 0 1-1.298-.252 2.935 2.935 0 0 1-1.06-.726 3.09 3.09 0 0 1-.573-1.045 4.001 4.001 0 0 1-.202-1.28c0-.852.15-1.64.455-2.36a5.98 5.98 0 0 1 1.297-1.92c.247-.248.527-.477.843-.691.314-.212.612-.393.893-.54.28-.144.52-.262.724-.35.202-.091.327-.147.372-.17l1.347 1.988c-.248.09-.522.208-.826.353-.303.147-.59.326-.857.538a2.95 2.95 0 0 0-.676.759c-.179.292-.28.63-.302 1.012.65 0 1.224.19 1.718.573.493.382.74.93.74 1.65m245.35 56.874h3.815l11.842-20.636h-3.776zm-.18 1.488c-1.236 0-2.182.98-2.182 2.218s.946 2.18 2.181 2.18c1.232 0 2.217-.944 2.217-2.18s-.985-2.218-2.217-2.218m-26.352-5.527l1.09-1.888c4.36-6.068 7.339-4.397 5.994-2.107l-1.815 3.124c-1.13 1.962-4.434 3.342-5.269.871m25.092 2.98c-.218-.58-.872-1.163-1.417-1.307l-.255.292a23.583 23.583 0 0 1-4.542 4.104c1.198-3.596.943-9.118 3.268-13.95l-2.835-1.527c-1.56 2.143-4.976 7.084-8.392 11.081.006.01.016.018.021.025-.014-.006-.03-.02-.045-.025l-.253.292c-2.727 3.16-5.377 5.666-7.05 5.666-.834 0-1.634-.836-1.634-2.543v-1.562c2.652.327 5.45-1.418 7.23-4.504l1.016-1.743c3.522-6.03-2.217-8.03-6.068-4.504l5.375-9.337h-3.779l-10.775 18.695a2.991 2.991 0 0 0-.689-.457l-.256.292c-2.723 3.16-6.211 5.666-8.863 5.666-2.325 0-3.705-1.453-1.961-4.504l3.884-6.757c2.18-3.742 6.032-3.124 3.778.8l-.544.944h3.09l.545-.944c2.034-3.488.071-6.104-3.015-6.104-3.051 0-5.487 1.6-7.085 4.36l-3.718 6.38c-.078-.046-.16-.1-.233-.132l-.255.292c-2.724 3.16-5.375 5.666-7.047 5.666-.836 0-1.306-.58-.436-2.07l8.066-14.133h-3.78l-6.719 11.734c-2.873 2.615-5.085 4.068-5.814 3.742-.944-.399 0-1.816.473-2.615l7.374-12.861h-3.778l-7.338 12.695c-.816.743-2.402 1.407-3.19 1.944 1.199-3.596.944-9.118 3.269-13.95l-2.832-1.527c-1.563 2.143-10.283 13.698-13.698 17.693.325.472.872.945 1.416 1.308 2.143-2.47 9.338-11.734 10.682-13.514-1.49 3.923-.69 10.972-4.288 10.972-1.27 0-1.78-1.382-1.78-1.382l-2.361 1.236s.69 3.05 4.14 3.05c.365 0 .692-.036 1.056-.072.035 0 .071-.036.106-.036 1.92-.254 4.578-1.138 6.36-2.37-.012 1.537.916 2.478 2.5 2.478 2.068 0 4.395-1.889 6.21-3.632-.361 2.035.835 3.632 3.235 3.632 2.346 0 4.959-1.886 7.437-4.363.034 2.51 1.968 4.363 5.126 4.363 3.066 0 6.114-1.713 8.741-4.016l-2.105 3.654h3.816l4.323-7.52v3.014c0 3.232.617 4.868 3.67 4.868 3.123 0 6.721-3.341 9.845-6.975-.006-.01-.018-.021-.02-.034.014.012.031.023.047.034 2.144-2.47 4.034-5.123 5.375-6.904-1.488 3.924-.688 10.973-4.287 10.973-1.27 0-1.78-1.382-1.78-1.382l-2.362 1.236s.691 3.05 4.142 3.05c.362 0 .688-.036 1.056-.072.034 0 .069-.035.105-.035 3.853-.512 7.668-3.562 10.501-6.87m-114.59-1.084h-.183c-1.235 0-2.216 1.017-2.216 2.255 0 .472.145.907.363 1.269l-.037.073c-1.779 3.05-6.103 2.47-3.85-1.454l2.87-4.977 1.816-3.088c2.653-4.505 6.285-2.725 3.997 1.2zm-25.43 14.131c-.8 1.417-2.072 1.2-2.072.184 0-.98.909-2.106 3.815-3.234zm-28.742-13.73c-2.288 3.595-4.541 5.303-6.103 5.303-.835 0-1.307-.58-.436-2.071l5.267-9.193c2.035-3.522 6.067-2.615 4.213.801zm-12.054-14.75c1.126-1.927 2.362-2.762 3.415-2.762 1.418 0 2.071.944 2.071 2.325 0 3.524-4.364 10.833-10.172 9.881h-.763zm92.777 14.094l-.254.292c-2.722 3.16-5.375 5.667-7.047 5.667-.836 0-1.307-.58-.436-2.072l5.45-9.553c1.636-2.87.07-4.941-2.035-4.941-1.636 0-3.341.871-5.231 2.833l1.417-2.469h-3.779l-6.088 10.533a2.769 2.769 0 0 0-.482-.29l-.255.292c-1.706 1.852-3.814 2.762-5.703 2.799l3.56-6.14c2.288-3.962.182-7.701-3.38-7.701-2.907 0-5.158 1.162-7.339 4.94l-1.852 3.233-1.62 2.77a2.49 2.49 0 0 0-.342-.19l-.254.291c-3.125 3.595-5.777 5.92-8.755 7.195l10.355-17.73h-3.779l-6.683 11.626c-2.907 2.687-5.16 4.176-5.886 3.85-.944-.398 0-1.816.472-2.616l7.375-12.86h-3.778l-6.028 10.43a2.484 2.484 0 0 0-.331-.187l-.254.292c-2.725 3.16-5.376 5.667-7.048 5.667-.835 0-1.307-.58-.436-2.072l5.449-9.553c1.635-2.87.073-4.942-2.034-4.942-1.635 0-3.343.872-5.231 2.834l1.417-2.469h-3.78l-6.038 10.445a2.63 2.63 0 0 0-.359-.202l-.254.292c-2.723 3.16-5.375 5.667-7.048 5.667-.835 0-1.307-.58-.436-2.072l6.104-10.68h-2.143c.145-1.598-1.49-3.814-3.961-3.814-2.033 0-4.869 1.597-6.465 4.36l-3.903 6.736c-.26-.233-.557-.415-.828-.488l-.254.292c-2.725 3.16-4.817 5.667-8.56 5.667-2.579 0-4.14-2.579-1.89-6.431l1.055-1.852c.69.107 1.381.184 2.142.184 4.033 0 8.611-2.072 11.59-7.267 1.053-1.853 1.526-3.596 1.526-5.086 0-3.415-2.217-5.63-5.013-5.63-2.071 0-4.542 1.454-6.248 4.432l-5.886 10.137c-2.216-1.163-3.38-3.27-3.38-5.378 0-1.743.8-3.487 2.434-4.757l-1.235-2.218c-2.69 1.928-3.887 4.504-3.887 7.05 0 3.013 1.708 5.92 4.758 7.518l-1.125 1.964c-2.651 4.578-1.09 9.662 4.25 9.662 4.226 0 6.076-1.88 8.681-4.355-.823 2.374.373 4.355 3.048 4.355 1.526 0 3.415-.98 5.232-2.469.18 1.454 1.344 2.469 3.268 2.469 1.81 0 3.778-1.124 5.72-2.773l-1.392 2.411h3.814l5.776-10.063c5.777-7.23 8.357-6.287 6.722-3.488l-4.904 8.534c-1.598 2.8-.472 5.376 2.579 5.376 2.033 0 4.266-1.42 6.44-3.41-.453 2.078.506 3.41 2.388 3.41 1.817 0 3.886-1.526 5.595-3.05l-2.071 3.56c-5.123 1.524-8.32 3.633-8.32 6.465 0 3.633 5.56 4.397 8.282-.253l2.906-4.978c3.159-.994 6.273-2.953 9.525-6.172-.52 5.277 6.508 6.48 10.746 1.122h.835c1.38 0 3.248-.52 4.934-1.45l-2.54 4.394h3.815l5.776-10.063c5.777-7.23 8.357-6.287 6.721-3.489l-4.904 8.538c-1.598 2.799-.473 5.376 2.58 5.376 3.126 0 6.72-3.342 9.846-6.975-.255-.511-.908-1.093-1.418-1.311m118.63-35.573c-2.29 3.741-4.615 5.521-6.212 5.521-.835 0-1.307-.58-.437-2.07l5.267-9.193c2.035-3.524 6.067-2.615 4.214.8h.035zm-36.187.219c-2.29 3.594-4.543 5.302-6.104 5.302-.836 0-1.307-.58-.437-2.07l5.268-9.193c2.034-3.524 6.066-2.615 4.214.8zm-39.917 13.73c-.797 1.417-2.07 1.2-2.07.184 0-.981.872-2.107 3.779-3.234zm8.028-28.481c1.127-1.926 2.362-2.76 3.417-2.76 5.994 0 1.525 14.435-8.102 12.205h-.763zm77.664 14.097l-.255.29c-2.72 3.16-5.374 5.667-7.047 5.667-.835 0-1.307-.58-.437-2.071l12.789-22.124h-3.779l-5.557 9.591c-.654-1.054-1.89-1.962-3.453-1.962-2.035 0-4.867 1.599-6.466 4.359l-3.698 6.38c-.079-.046-.16-.099-.234-.132l-.255.292c-2.723 3.16-5 5.666-6.672 5.666-.837 0-1.307-.58-.438-2.07l5.45-9.555c1.637-2.87.072-4.942-2.034-4.942-1.636 0-3.34.871-5.232 2.835l1.417-2.47h-3.779l-6.037 10.447a2.687 2.687 0 0 0-.36-.203l-.256.292c-2.723 3.16-5.374 5.666-7.046 5.666-.835 0-1.306-.58-.436-2.07l6.103-10.682h-2.144c.146-1.598-1.488-3.815-3.96-3.815-2.035 0-4.87 1.599-6.468 4.358l-3.652 6.306-.206.234c-2.722 3.159-5.75 5.665-7.42 5.665-.837 0-1.307-.58-.437-2.07l3.778-6.611c1.307-2.29.689-3.633-.545-5.123l-2.106-2.544c-.545-.69-.545-1.453.218-2.18l-1.962-2.143c-2.144 1.927-2.325 4.069-.982 5.813l.329.436c-1.672 2.362-3.924 5.56-6.397 8.465.075.107.164.213.258.32-3.113 3.58-5.759 5.895-8.73 7.162l4.795-8.21h-3.778l-.399.655c-1.998 3.524-4.288 6.031-7.23 6.031-2.58 0-3.05-2.579-.8-6.43l1.055-1.852a13.6 13.6 0 0 0 2.142.181c13.443 0 19.946-17.982 8.104-17.982-2.072 0-4.544 1.454-6.25 4.432l-5.885 10.135c-2.216-1.161-3.378-3.268-3.378-5.375 0-1.743.8-3.488 2.432-4.758l-1.233-2.217c-2.69 1.926-3.888 4.504-3.888 7.047 0 3.016 1.709 5.922 4.76 7.52l-1.127 1.963c-2.652 4.578-2.18 9.663 3.162 9.663 1.598 0 2.941-.472 4.105-1.2l-.983 1.71c-5.12 1.56-8.282 3.631-8.282 6.465 0 3.632 5.56 4.396 8.282-.254l2.907-4.977c3.925-1.235 7.776-3.923 11.918-8.719a2.222 2.222 0 0 0-.236-.355c1.678-1.971 3.102-3.874 5.95-7.746l.507.619c.473.616.654 1.38.218 2.144l-3.997 6.937c-1.599 2.795-.472 5.374 2.58 5.374 1.899 0 4.348-1.239 6.385-3.024-.044 1.738 1.144 3.024 3.299 3.024 1.525 0 3.415-.98 5.23-2.47.183 1.454 1.347 2.47 3.27 2.47 1.81 0 3.777-1.125 5.72-2.774l-1.392 2.412h3.813l5.777-10.065c5.777-7.229 8.357-6.284 6.72-3.487l-4.903 8.538c-1.597 2.798-.473 5.376 2.578 5.376 2.01 0 3.836-1.384 5.982-3.333-.2 1.893 1.004 3.333 3.282 3.333 1.525 0 3.414-.98 5.232-2.47.182 1.455 1.345 2.47 3.269 2.47 3.125 0 6.72-3.341 9.845-6.976-.256-.504-.909-1.085-1.42-1.302m-112.28-5.305c2.18-3.742 6.033-3.125 3.779.799l-.545.944c-1.817 3.089-4.252 3.015-5.668 2.507zm-3.051 13.587c4.287 0 8.54-3.341 11.662-6.975-.253-.51-.908-1.09-1.417-1.308l-.253.292c-2.726 3.16-6.213 5.666-8.867 5.666-2.325 0-3.705-1.453-1.962-4.505l.363-.653c2.435 1.016 7.012.545 9.846-4.36l.545-.944c2.035-3.489.073-6.104-3.016-6.104-3.05 0-5.484 1.598-7.083 4.359l-3.679 6.313c-.038-.02-.076-.048-.112-.064l-.255.292c-2.724 3.16-5.375 5.666-7.047 5.666-.836 0-1.306-.58-.437-2.071l5.45-9.555c1.635-2.87.072-4.942-2.036-4.942-1.635 0-3.379.909-5.266 2.871l6.03-10.5h-3.778l-10.656 18.49a2.471 2.471 0 0 0-.432-.252l-.255.291c-2.725 3.161-5.376 5.667-7.048 5.667-.835 0-1.307-.58-.437-2.07l8.102-14.134h3.09l1.09-1.817h-3.125l3.56-6.175h-3.778l-3.56 6.175h-3.415l-1.09 1.817h3.45l-7.593 13.153c-1.598 2.799-.472 5.377 2.579 5.377 1.878 0 3.926-1.213 5.94-2.964l-1.499 2.6h3.815l5.74-9.992c5.813-7.302 8.393-6.357 6.758-3.56l-4.905 8.538c-1.598 2.798-.472 5.376 2.58 5.376 2.296 0 4.846-1.805 7.276-4.205.11 2.431 2.033 4.207 5.125 4.207M127.98 291.68c2.18-3.742 6.03-3.125 3.776.799l-.544.944c-1.815 3.088-4.251 3.015-5.667 2.506zm23.119 9.191l5.268-9.191c2.034-3.526 6.067-2.617 4.213.799l-2.942 5.159c-2.288 3.595-4.543 5.304-6.104 5.304-.834 0-1.307-.581-.435-2.07m53.984-9.192c2.18-3.742 6.03-3.125 3.776.799l-.545.944c-1.815 3.088-4.25 3.014-5.666 2.506zm-57.808 9.526c-.627 2.24.57 4.06 3.134 4.06 1.525 0 3.415-.98 5.23-2.469.183 1.453 1.346 2.47 3.27 2.47 2.013 0 4.218-1.39 6.369-3.346-.418 2.042.539 3.346 2.4 3.346 2.073 0 4.398-1.89 6.213-3.634-.364 2.036.837 3.634 3.234 3.634 3.125 0 6.72-3.342 9.845-6.976-.025-.05-.068-.101-.1-.151 2.088-2.429 3.93-5.007 5.248-6.75-1.49 3.922-.69 10.972-4.288 10.972-1.27 0-1.78-1.382-1.78-1.382l-2.363 1.235s.69 3.052 4.142 3.052c.363 0 .689-.037 1.054-.073.037 0 .072-.035.108-.035 2.776-.367 5.529-2.056 7.913-4.209.058 2.486 1.986 4.317 5.125 4.317 4.287 0 8.538-3.341 11.662-6.976-.254-.51-.908-1.09-1.416-1.308l-.254.292c-2.725 3.16-6.213 5.667-8.863 5.667-2.326 0-3.707-1.454-1.963-4.505l.364-.654c2.432 1.016 7.01.545 9.845-4.36l.545-.943c2.034-3.489.072-6.104-3.015-6.104-3.05 0-5.487 1.598-7.083 4.358l-3.67 6.294c-.035-.012-.07-.037-.104-.046l-.254.291a23.589 23.589 0 0 1-4.542 4.106c1.199-3.596.945-9.117 3.27-13.951l-2.833-1.526c-1.562 2.143-4.977 7.084-8.393 11.08.033.046.074.091.11.138l-.135.153c-2.724 3.16-5.376 5.667-7.048 5.667-.835 0-1.307-.58-.436-2.07l8.065-14.135h-3.779l-6.72 11.734c-2.87 2.616-5.085 4.069-5.814 3.742-.943-.398 0-1.815.474-2.615l7.373-12.86h-3.778l-6.013 10.405c-.098-.06-.195-.122-.287-.161l-.254.29c-2.725 3.16-5.376 5.667-7.048 5.667-.835 0-1.307-.58-.436-2.07l6.103-10.682h-2.144c.146-1.598-1.488-3.816-3.96-3.816-2.034 0-4.868 1.6-6.466 4.36l-3.83 6.612a2.803 2.803 0 0 0-.576-.363l-.254.29c-2.724 3.16-5.858 5.667-8.51 5.667-2.324 0-3.706-1.453-1.963-4.504l3.887-6.756c2.18-3.742 6.031-3.125 3.777.798l-.545.945h3.09l.544-.945c2.034-3.487.073-6.104-3.014-6.104-3.052 0-5.134 1.6-6.73 4.36l-3.756 6.443a2.424 2.424 0 0 0-.347-.194l-.254.29c-2.724 3.16-5.947 5.667-8.598 5.667-2.326 0-3.707-1.453-1.963-4.504l.363-.654c2.434 1.018 7.012.545 9.846-4.358l.545-.946c2.034-3.486.072-6.103-3.016-6.103-3.05 0-5.486 1.598-7.083 4.36l-3.96 6.792c-2.363 4.033-.327 7.738 4.14 7.738 3.329 0 6.013-2.015 8.788-4.617-.098 2.637 1.858 4.617 5.121 4.617 3.088.006 5.8-1.728 8.441-4.054m-36.872-13.96l3.051-5.231c2.76-4.757 6.285-1.962 4.395 1.599-1.45 2.724-3.595 3.56-7.446 3.633m-4.068 17.219c-2.253 0-4.033-.508-5.45-1.306.654-.764 1.307-1.709 1.89-2.689l6.356-11.008 1.017.108c8.866 1.855 5.341 14.895-3.813 14.895m9.336-15.475c7.629-2.58 8.21-12.135.69-12.135-2.071 0-4.541 1.453-6.248 4.432L99.94 298.872a14.618 14.618 0 0 1-1.452 2.141c-2.616-3.595-1.853-8.971 1.816-11.334l-1.527-1.926c-7.92 5.05-5.594 19.617 7.63 19.617 11.3.002 16.53-13.547 9.264-18.38" fill="#fff"/>
</svg>
