<svg viewBox="0 0 138 70" xmlns="http://www.w3.org/2000/svg">
  <path d="M138 0H0l59.51 65.68c5.22 5.761 13.76 5.761 18.98 0z" fill="#81b3d3"/>
  <path d="M36.687.457l32.148 37.879 32.02-37.65z" fill="#23a9e1"/>
  <path d="M61.1 14.719h17.32c-1.29-.8-4.355-4.582-6.043-3.176-.137.115-4.871-5.744-7.982-2.921-2.713 2.466-3.973-.323-7.048 1.63-3.505 2.318 2.026 3.684 3.753 4.467m26.73-3.478l-9.86.054c3.896-4.5 5.647-4.018 9.86-.054" fill="#fff"/>
  <path d="M97.622 3.588V1.154h2.08zm-49.245 9.41l.09.083c.024-.024 2.327-2.511 5.983-4.964 3.367-2.259 8.592-4.944 14.383-4.912 5.778.028 11.077 2.722 14.506 4.977 3.665 2.41 6.027 4.84 6.132 4.95l-2.515 2.945c-4.488.616-7.702 3.945-12.077 3.217-2.205-.366-2.271-1.632-2.902-2.893-.484-.969-1.256-.846-2.263-1.24-.937-.366-1.479-1.128-3.351-.688-1.642.385-1.822 2.933-3.865 2.787-1.096-.079-1.175-1.621-2.755-3.596-4.09-4.915-7.892-4.235-10.547.308l19.638 23.33zM40.011 1.153V3.06l-1.604-1.906zm53.876 0h3.227v3.03L93.887 7.96zM89.832 12.61V1.154h3.546v7.404l-3.5 4.098a.966.966 0 0 0-.046-.046m-.508-10.389v9.894a41.051 41.051 0 0 0-3.557-2.986zm-4.165-.358v6.819c-.463-.334-.95-.673-1.465-1.012-.664-.438-1.4-.892-2.194-1.34zm-4.312-.133v4.24a32.83 32.83 0 0 0-3.12-1.474zm.508-.576h3.727l-3.727 4.55zm4.312 0H89.3l-3.634 7.06zm-8.797 0h3.86L77.2 4.282c-.109-.042-.221-.081-.331-.122V1.154zm-.509.417v2.403a25.927 25.927 0 0 0-3.1-.887zm-4.203.042v1.26a21.458 21.458 0 0 0-2.179-.252zm-6.766-.039l2.248 1.042c-.762.043-1.512.13-2.248.253zm-4.12-.003l3.065 1.498c-1.06.229-2.083.528-3.066.875zm3.61 1.2l-3.304-1.617h3.305zm3.566-.342l-2.754-1.275h2.754zm.609-1.275h2.881l-2.881 1.334zm3.759 0h3.24l-3.24 1.584zM60.405 4.265l-3.51-3.11h3.869V4.13l-.359.135m-3.618-2.527l3.093 2.741a31.493 31.493 0 0 0-3.093 1.489zm-4.312.128l3.64 4.48a35.89 35.89 0 0 0-3.64 2.41zm-4.165.358l3.586 6.974a37.772 37.772 0 0 0-3.586 3.151zm3.656 6l-3.634-7.07h3.634zm4.312-2.485l-3.726-4.585h3.726zM43.747 7.497L40.52 3.664v-2.51h3.227zm.508-6.343H47.8v11.16l-3.546-4.212zm24.8-1.153H36v14.582L68.836 54.52l.22-.275L102 15.04V0z" fill="#491213"/>
  <path d="M66.227 46.026l2.61-4.22 2.598 4.22-2.598 4.23z" fill="#23a9e1"/>
  <path d="M74.218 30.556c-3.433-2.02-2.564-3.523.23-4.925 1.462-.734 4.754-3.38 6.133-2.499l-6.363 7.424m-2.334 2.517c-2.046-.095-4.33-.365-6.262.055 1.207.302 4.151 1.165 1.41 1.894.983 1.407 2.578 1.317 3.624.082-.425-.209-.655-.466-1.007-.686 1.085-.196 2.1-.822 2.235-1.345m1.235-1.574c-.933-.796-1.877-.84-2.746 0-1.165-2.137-5.4-1.421-7.379-1.72 1.065 2.614 9.65 3.102 10.124 1.72m-6.773-2.151c-1.565-.485-6.84-.364-3.388-1.794 1.065-.441 6.593.063 3.388 1.794m1.912-3.03c-.477-1.077.365-2.36 1.74-1.428 1.199.813-.552 2.017-1.74 1.428m-2.836.091c-2.265.679-5.273-.784-1.63-1.52 2.261-.456 4.666.506 1.63 1.52.091-.027-.084.028 0 0m-2.665-6.234c-.545 1.624-1.533 1.927-1.423-.045.126-2.274 1.609-1.729 3.2-2.6 1.324-.726 2.038-3.385 4.31-1.795 1.014.71 2.176.116 2.5 1.19-.016-.054-2.95 6.692-1.318 6.692-3.22 0-1.8-3.845-.568-6.426-1.198.574-3.143 4.341-1.546 4.961-.831 1.095-3.372 2.561-4.696 1.492-1.006-.81-.447-2.158-.459-3.47m-3.963 2.811c-5.596-.046-1.813-8.648.091-8.128 2.19.696 1.944 8.194-.091 8.128m-6.17-8.146c-2.624-.109-1.526-2.567.257-3.121 1.695-.528 5.25 1.114 6.39 2.205-1.808.555-4.146.476-6.134.568-.146-2.026-.62-1.32-.512.348" fill="#dc6243"/>
  <path d="M71.774 25.832c-2.908-2.987 4.342-2.712 5.51-3.763.85.284 6.99-5.377 8.485-5.025-1.074 1.26-3.388 5.282-5.047 5.282-1.275 0-2.565-.19-3.552.718-1.444 1.33-3.837 2.006-5.396 2.788" fill="#f49774"/>
  <path d="M72.727 22.18c-1.592.856-3.098-2.536-.349-2.206 1.826.22 3.676-.154 5.42.147-1.251 1.487-3.056 2.306-5.071 2.059" fill="#f4b1a4"/>
  <path d="M51.113 20.935c.333.401.578.834.523 1.374-.038.375-.607 1.006-.175 1.198l1.455-1.84c-.39-.098-3.482-3.796-3.532-4.201l-2.051 1.126c.106.429.84.003 1.203.03.538.038.926.363 1.268.747-1.12.94-3.85 3.257-4.138 3.305-.146.023-.706-.39-.714-.037-.004.17.553.659.659.786l1.447 1.722c.401-.183-.072-.475.133-.807.15-.243 3.181-2.77 3.922-3.403m-3.423-4.531c.287-.062.405.282.622-.036l-1.59-1.894c-.241-.287-.546-.595-.459.012.058.409-3.969 3.677-4.215 3.778-.31.128-.492-.27-.72.063.475.564.948 1.129 1.424 1.693.16.19.309.397.485.573.22.22.135-.437.145-.38-.06-.333.342-.616.555-.797 1.004-.884 3.505-2.979 3.753-3.012m-5.694-.595c-1.147.34-2.37-.107-2.731-1.326-.353-1.191.398-2.439 1.344-3.117.935-.67 2.33-.63 2.84.544.224.52.102 1.108-.061 1.625-.105.328-.388.649.035.836.56-.711 1.118-1.421 1.676-2.133-.684-.41-.985-1.092-1.493-1.684-.572-.696-1.34-1.35-2.26-1.483-1.864-.264-3.62 1.66-3.762 3.405-.089.946.242 1.849.808 2.597.487.645 1.213 1.054 1.581 1.788.17.062 1.756-.67 2.133-.815-.033-.072-.057-.178-.11-.237-.494.146 0 0 0 0m25.512 23.636c-.747-.499-2.613-3.044-2.969-3.468l-.213-.253c-.007-.01-.185.145-.16.124-.112.094.086.372-.034.56-.515.806-3.738 3.236-3.905 3.352-.36.25-.756-.103-.967.206.467.554 1.805 2.3 1.96 2.325.311.05.096-.53.136-.649.08-.24 1.71-1.588 2.304-2.084.218-.183.447.276.577.468.212.315.307.65.193 1.019-.075.24-.465.597-.162.762.402-.47 1.533-1.788 1.696-1.98.164-.19-.367-.023-.304-.056-.24.124-.466.153-.69-.018-.063-.047-.707-.702-.643-.757.28-.235.623-.625.984-.714.56-.138 1.027.984 1.11 1.382.078.375.067.77-.05 1.136-.08.251-.316.452.012.604l1.383-1.896a.463.463 0 0 1-.258-.063c-.083-.056.09.045 0 0m-9.227-8.921a3.35 3.35 0 0 0-1.977.793c-1.43 1.203-1.616 3.275-.492 4.753 1.292 1.702 3.374 1.895 5.059.694 1.43-1.205 1.612-3.282.5-4.766-.758-1.01-1.932-1.54-3.09-1.474zm1.19 1.386c.949-.108 1.503.799 1.099 1.768-.42.98-1.43 1.989-2.424 2.38-1.18.465-2.011-.537-1.531-1.657.422-.984 1.43-1.983 2.426-2.38.15-.059.294-.095.43-.11zm-2.783-4.63c.308.038.601.356.824.027l-1.447-1.712c-.386.174.03.356-.126.63-.158.277-1.662.507-2.062.578.146-.418.58-1.698.752-1.84.353-.29.573.28.832-.092l-1.78-2.112c-.2-.238-.362-.667-.636-.441.024-.02.003.955-.058 1.125-.056.153-.608 2.361-1.25 2.901-.32.27-1.453 1.256-1.755 1.362-.35.122-.535-.389-.792-.025l1.617 1.92c.082.096.391.56.498.58.339.06.04-.58.074-.706.098-.28 1.623-1.765 2.27-1.856.948-.133 2.077-.455 3.039-.34.22.027-.229-.028 0 0m24.239 6.77c.124.421.194.865.14 1.305-.07.566-.636 1.898-1.411 1.519-.76-.373-1.425-1.122-2.07-1.657.52-.608.978-1.135 1.853-.84.24.08.446-.024.194-.17-.263-.153-2.022-1.276-2.117-1.169-.175.202.343.564.143.957-.148.29-.396.54-.605.79-.467-.394-1.248-.813-.685-1.464.352-.428.811-.76 1.361-.87.368-.075 1.195.252 1.302-.146-.705-.34-1.41-.677-2.115-1.016.115.52-2.173 2.937-2.681 3.548-.074.088-.427.395-.431.517-.006.278.403.062.427.054.315-.116 4.424 3.317 4.526 3.552.065.182-.144.373-.02.475-.006-.006.148.14.165.12.253-.304 2.936-3.88 3.489-4.036a239.664 239.664 0 0 1-1.537-2.372c-.383.168-.013.616.072.903m-4 4.352c-1.348-.87-3.633.83-3.976.994-.675.319-1.162-.353-.812-.975.304-.54.904-.801 1.5-.837.18-.01.875.128.946.017.084-.131.148-.142.028-.224-.557-.375-1.112-.75-1.667-1.126-.115.685-.9 1.121-1.348 1.585-.534.555-.987 1.253-.987 2.05 0 .736.441 1.39 1.089 1.726.737.384 1.505.076 2.158-.331.407-.255.814-.556 1.249-.76.646-.303 1.495-.041 1.267.824-.183.696-.876 1.337-1.56 1.519-.4.106-.825.07-1.216-.059-.28-.091-.645-.476-.799-.072l2.26 1.647c.068-.493.34-.708.706-1.015.477-.419.933-.858 1.294-1.383.753-1.1 1-2.638-.132-3.58m17.617-28.065a.222.222 0 0 0-.088.072l-.79.95-.814.982c-.168.204-.349.296-.025.467.543-.272 3.518 4.768 3.252 5.492-.47.244-4.49-3.283-4.598-3.516-.033-.095.178-.662-.136-.613-.149.023-.484.583-.578.697l-.577.695c.216.315.336-.013.623.028.249.05 1.198.864 1.456 1.08-.47.017-1.743.086-1.905.074-.586.073-.275-.431-.66-.605l-1.478 1.795-.86 1.043c-.035.042-.03.02.031.072.215.177.068.109.37.004.328-.115 4.256 3.2 4.398 3.369.245.292-.1.633.268.793l1.168-1.418c.059-.072.091-.066.013-.13-.277-.228-.309.138-.65.1-.346-.057-2.855-2.186-3.828-2.992l5.322-.197c.195-.007.74.581.695.79-.052.244-.301.361.034.515.311-.374.64-.746.945-1.125l.148-.184a.478.478 0 0 0 .135-.172l.11-.137c.275-.314 1.169-1.303 1.062-1.396-.3-.26-.446.302-.844-.035-.226-.162-.793-1.16-.935-1.402-.172-.292.394-.583.625-.727.504-.313 2.107-.767 2.26.227.025.167-.177.357-.055.457.028.024.133.156.176.105l2.142-2.576c-.063-.053-.135-.147-.21-.176-.474.473-5.466-1.52-5.83-1.795-.166-.066-.192-.673-.372-.611zm-.225 2.553c.764.318 1.526.638 2.287.96-.23.064-.447.166-.648.293h-.002a3.71 3.71 0 0 0-.621.495l-1.016-1.748zm-6.588 7.753c-1.107-.076-2.23.41-3.023 1.317-1.235 1.5-1.112 3.678.393 4.945 1.518 1.25 3.68.932 4.916-.55 1.232-1.496 1.147-3.68-.385-4.934a3.302 3.302 0 0 0-1.9-.778zm-1.449 1.559c.622.038 1.31.414 1.742.703.78.521 2.214 1.687 1.477 2.738.048-.058.083-.097-.05.07a.162.162 0 0 1-.018.018c-.8.84-2.18.063-2.924-.474-.745-.538-2.022-1.668-1.207-2.664.257-.314.607-.414.98-.391zm-3.127 4.28c-1.214-.067-2.403.496-3.299 1.576-.642.771-1.282 1.544-1.922 2.316.228.332.495-.078.827.113.283.163 4.053 3.312 4.115 3.485.106.297-.165.356.094.568.111.093 2.944-3.405 3.203-4.02.448-1.139.091-2.387-.82-3.175.073.06.177.145-.042-.037-.69-.518-1.427-.787-2.156-.827zm-1.053 1.58c.095.003.184.016.266.037 1.422.363 3.384 2.115 2.129 3.628-.156.193-.029.035-.432.422-.198.19-4.179-3.034-4.02-3.209.475-.521 1.396-.904 2.057-.879z" fill="#fff"/>
</svg>
